<?xml version="1.0" encoding="UTF-8" standalone="no"?>
<svg width="800" height="600" xmlns="http://www.w3.org/2000/svg">
  <!-- Background -->
  <rect width="800" height="600" fill="#0f1218"/>
  
  <!-- Sidebar -->
  <rect x="0" y="0" width="200" height="600" fill="#1a1a2e"/>
  <text x="20" y="40" font-family="Arial" font-size="20" font-weight="bold" fill="#ffffff">ONDC Admin</text>
  <line x1="20" y1="60" x2="180" y2="60" stroke="#333355" stroke-width="2"/>
  
  <!-- Sidebar Menu Items -->
  <rect x="0" y="80" width="200" height="40" fill="#646cff"/>
  <text x="20" y="105" font-family="Arial" font-size="14" font-weight="bold" fill="#ffffff">Dashboard</text>
  
  <text x="20" y="145" font-family="Arial" font-size="14" fill="#aaaaaa">Products</text>
  <text x="20" y="185" font-family="Arial" font-size="14" fill="#aaaaaa">Orders</text>
  <text x="20" y="225" font-family="Arial" font-size="14" fill="#aaaaaa">GitHub Loader</text>
  <text x="20" y="265" font-family="Arial" font-size="14" fill="#aaaaaa">Supabase Import</text>
  <text x="20" y="305" font-family="Arial" font-size="14" fill="#aaaaaa">ONDC Integration</text>
  <text x="20" y="345" font-family="Arial" font-size="14" fill="#aaaaaa">API Gateway</text>
  <text x="20" y="385" font-family="Arial" font-size="14" fill="#aaaaaa">Monitoring</text>
  <text x="20" y="425" font-family="Arial" font-size="14" fill="#aaaaaa">Documentation</text>
  <text x="20" y="465" font-family="Arial" font-size="14" fill="#aaaaaa">Settings</text>
  
  <!-- Main Content Area - Dashboard -->
  <text x="220" y="50" font-family="Arial" font-size="24" font-weight="bold" fill="#ffffff">Dashboard</text>
  
  <!-- Stats Cards Row -->
  <rect x="220" y="70" width="180" height="100" rx="8" fill="#24243c"/>
  <text x="235" y="100" font-family="Arial" font-size="14" fill="#aaaaaa">Total Orders</text>
  <text x="235" y="135" font-family="Arial" font-size="24" font-weight="bold" fill="#4ade80">128</text>
  <text x="295" y="135" font-family="Arial" font-size="14" fill="#4ade80">↑ 12%</text>
  
  <rect x="420" y="70" width="180" height="100" rx="8" fill="#24243c"/>
  <text x="435" y="100" font-family="Arial" font-size="14" fill="#aaaaaa">Revenue</text>
  <text x="435" y="135" font-family="Arial" font-size="24" font-weight="bold" fill="#4ade80">$4,285</text>
  <text x="525" y="135" font-family="Arial" font-size="14" fill="#4ade80">↑ 8%</text>
  
  <rect x="620" y="70" width="180" height="100" rx="8" fill="#24243c"/>
  <text x="635" y="100" font-family="Arial" font-size="14" fill="#aaaaaa">Products</text>
  <text x="635" y="135" font-family="Arial" font-size="24" font-weight="bold" fill="#ffffff">42</text>
  
  <!-- ONDC Integration Status -->
  <rect x="220" y="190" width="280" height="160" rx="8" fill="#24243c"/>
  <text x="240" y="220" font-family="Arial" font-size="16" font-weight="bold" fill="#ffffff">ONDC Integration Status</text>
  <circle cx="250" cy="260" r="8" fill="#4ade80"/>
  <text x="270" y="265" font-family="Arial" font-size="14" fill="#ffffff">Network Connection: Active</text>
  <circle cx="250" cy="290" r="8" fill="#4ade80"/>
  <text x="270" y="295" font-family="Arial" font-size="14" fill="#ffffff">Catalog Sync: Complete</text>
  <circle cx="250" cy="320" r="8" fill="#f97316"/>
  <text x="270" y="325" font-family="Arial" font-size="14" fill="#ffffff">Buyer App Integration: Pending</text>
  
  <!-- API Gateway Status -->
  <rect x="520" y="190" width="280" height="160" rx="8" fill="#24243c"/>
  <text x="540" y="220" font-family="Arial" font-size="16" font-weight="bold" fill="#ffffff">API Gateway Status</text>
  <circle cx="550" cy="260" r="8" fill="#4ade80"/>
  <text x="570" y="265" font-family="Arial" font-size="14" fill="#ffffff">Gateway: Online</text>
  <circle cx="550" cy="290" r="8" fill="#4ade80"/>
  <text x="570" y="295" font-family="Arial" font-size="14" fill="#ffffff">Routes: 24 Active</text>
  <circle cx="550" cy="320" r="8" fill="#4ade80"/>
  <text x="570" y="325" font-family="Arial" font-size="14" fill="#ffffff">Avg. Response Time: 120ms</text>
  
  <!-- Recent Orders Table -->
  <rect x="220" y="370" width="580" height="210" rx="8" fill="#24243c"/>
  <text x="240" y="400" font-family="Arial" font-size="16" font-weight="bold" fill="#ffffff">Recent Orders</text>
  
  <!-- Table Headers -->
  <text x="240" y="430" font-family="Arial" font-size="14" fill="#aaaaaa">Order ID</text>
  <text x="340" y="430" font-family="Arial" font-size="14" fill="#aaaaaa">Customer</text>
  <text x="440" y="430" font-family="Arial" font-size="14" fill="#aaaaaa">Items</text>
  <text x="540" y="430" font-family="Arial" font-size="14" fill="#aaaaaa">Total</text>
  <text x="640" y="430" font-family="Arial" font-size="14" fill="#aaaaaa">Status</text>
  <line x1="240" y1="445" x2="760" y2="445" stroke="#333355" stroke-width="1"/>
  
  <!-- Order 1 -->
  <text x="240" y="475" font-family="Arial" font-size="14" fill="#ffffff">#ORD-1089</text>
  <text x="340" y="475" font-family="Arial" font-size="14" fill="#ffffff">John Doe</text>
  <text x="440" y="475" font-family="Arial" font-size="14" fill="#ffffff">3</text>
  <text x="540" y="475" font-family="Arial" font-size="14" fill="#ffffff">$42.97</text>
  <rect x="640" y="460" width="80" height="25" rx="12" fill="#4ade80" fill-opacity="0.2"/>
  <text x="655" y="477" font-family="Arial" font-size="12" fill="#4ade80">Delivered</text>
  
  <!-- Order 2 -->
  <text x="240" y="515" font-family="Arial" font-size="14" fill="#ffffff">#ORD-1088</text>
  <text x="340" y="515" font-family="Arial" font-size="14" fill="#ffffff">Jane Smith</text>
  <text x="440" y="515" font-family="Arial" font-size="14" fill="#ffffff">1</text>
  <text x="540" y="515" font-family="Arial" font-size="14" fill="#ffffff">$16.49</text>
  <rect x="640" y="500" width="80" height="25" rx="12" fill="#f97316" fill-opacity="0.2"/>
  <text x="648" y="517" font-family="Arial" font-size="12" fill="#f97316">Processing</text>
  
  <!-- Order 3 -->
  <text x="240" y="555" font-family="Arial" font-size="14" fill="#ffffff">#ORD-1087</text>
  <text x="340" y="555" font-family="Arial" font-size="14" fill="#ffffff">Raj Kumar</text>
  <text x="440" y="555" font-family="Arial" font-size="14" fill="#ffffff">2</text>
  <text x="540" y="555" font-family="Arial" font-size="14" fill="#ffffff">$24.99</text>
  <rect x="640" y="540" width="80" height="25" rx="12" fill="#3b82f6" fill-opacity="0.2"/>
  <text x="650" y="557" font-family="Arial" font-size="12" fill="#3b82f6">Shipping</text>
</svg>