<?xml version="1.0" encoding="UTF-8" standalone="no"?>
<svg width="800" height="600" xmlns="http://www.w3.org/2000/svg">
  <!-- Background -->
  <rect width="800" height="600" fill="#0f1218"/>
  
  <!-- Header -->
  <rect width="800" height="70" fill="#1a1a2e"/>
  <text x="30" y="45" font-family="Arial" font-size="24" fill="#ffffff">Foodie ONDC</text>
  <text x="680" y="45" font-family="Arial" font-size="18" fill="#4ade80">Cart (3)</text>
  
  <!-- Category Navigation -->
  <rect x="20" y="90" width="760" height="50" rx="8" fill="#24243c"/>
  <text x="50" y="123" font-family="Arial" font-size="16" fill="#646cff">All</text>
  <text x="120" y="123" font-family="Arial" font-size="16" fill="#ffffff">Main Course</text>
  <text x="250" y="123" font-family="Arial" font-size="16" fill="#ffffff">Starters</text>
  <text x="350" y="123" font-family="Arial" font-size="16" fill="#ffffff">Desserts</text>
  <text x="450" y="123" font-family="Arial" font-size="16" fill="#ffffff">Beverages</text>
  
  <!-- Product Cards Row 1 -->
  <!-- Product 1 -->
  <rect x="20" y="160" width="240" height="200" rx="8" fill="#1a1a2e"/>
  <rect x="20" y="160" width="240" height="120" rx="8" fill="#24243c"/>
  <text x="30" y="300" font-family="Arial" font-size="18" font-weight="bold" fill="#ffffff">Butter Chicken</text>
  <text x="30" y="325" font-family="Arial" font-size="14" fill="#aaaaaa">Creamy tomato-based curry</text>
  <text x="30" y="350" font-family="Arial" font-size="16" font-weight="bold" fill="#4ade80">$12.99</text>
  <rect x="180" y="335" width="70" height="30" rx="15" fill="#646cff"/>
  <text x="200" y="355" font-family="Arial" font-size="14" fill="#ffffff">Add</text>
  <circle cx="40" cy="290" r="8" fill="#4ade80"/>
  <text x="55" y="295" font-family="Arial" font-size="12" fill="#4ade80">Veg</text>
  
  <!-- Product 2 -->
  <rect x="280" y="160" width="240" height="200" rx="8" fill="#1a1a2e"/>
  <rect x="280" y="160" width="240" height="120" rx="8" fill="#24243c"/>
  <text x="290" y="300" font-family="Arial" font-size="18" font-weight="bold" fill="#ffffff">Chicken Biryani</text>
  <text x="290" y="325" font-family="Arial" font-size="14" fill="#aaaaaa">Fragrant rice with chicken</text>
  <text x="290" y="350" font-family="Arial" font-size="16" font-weight="bold" fill="#4ade80">$14.99</text>
  <rect x="440" y="335" width="70" height="30" rx="15" fill="#646cff"/>
  <text x="460" y="355" font-family="Arial" font-size="14" fill="#ffffff">Add</text>
  <circle cx="300" cy="290" r="8" fill="#f87171"/>
  <text x="315" y="295" font-family="Arial" font-size="12" fill="#f87171">Non-Veg</text>
  
  <!-- Product 3 -->
  <rect x="540" y="160" width="240" height="200" rx="8" fill="#1a1a2e"/>
  <rect x="540" y="160" width="240" height="120" rx="8" fill="#24243c"/>
  <text x="550" y="300" font-family="Arial" font-size="18" font-weight="bold" fill="#ffffff">Paneer Tikka</text>
  <text x="550" y="325" font-family="Arial" font-size="14" fill="#aaaaaa">Grilled cottage cheese</text>
  <text x="550" y="350" font-family="Arial" font-size="16" font-weight="bold" fill="#4ade80">$10.99</text>
  <rect x="700" y="335" width="70" height="30" rx="15" fill="#646cff"/>
  <text x="720" y="355" font-family="Arial" font-size="14" fill="#ffffff">Add</text>
  <circle cx="560" cy="290" r="8" fill="#4ade80"/>
  <text x="575" y="295" font-family="Arial" font-size="12" fill="#4ade80">Veg</text>
  
  <!-- Product Cards Row 2 -->
  <!-- Product 4 -->
  <rect x="20" y="380" width="240" height="200" rx="8" fill="#1a1a2e"/>
  <rect x="20" y="380" width="240" height="120" rx="8" fill="#24243c"/>
  <text x="30" y="520" font-family="Arial" font-size="18" font-weight="bold" fill="#ffffff">Masala Dosa</text>
  <text x="30" y="545" font-family="Arial" font-size="14" fill="#aaaaaa">Crispy pancake with filling</text>
  <text x="30" y="570" font-family="Arial" font-size="16" font-weight="bold" fill="#4ade80">$8.99</text>
  <rect x="180" y="555" width="70" height="30" rx="15" fill="#646cff"/>
  <text x="200" y="575" font-family="Arial" font-size="14" fill="#ffffff">Add</text>
  <circle cx="40" cy="510" r="8" fill="#4ade80"/>
  <text x="55" y="515" font-family="Arial" font-size="12" fill="#4ade80">Veg</text>
  
  <!-- Product 5 -->
  <rect x="280" y="380" width="240" height="200" rx="8" fill="#1a1a2e"/>
  <rect x="280" y="380" width="240" height="120" rx="8" fill="#24243c"/>
  <text x="290" y="520" font-family="Arial" font-size="18" font-weight="bold" fill="#ffffff">Gulab Jamun</text>
  <text x="290" y="545" font-family="Arial" font-size="14" fill="#aaaaaa">Sweet milk dumplings</text>
  <text x="290" y="570" font-family="Arial" font-size="16" font-weight="bold" fill="#4ade80">$6.99</text>
  <rect x="440" y="555" width="70" height="30" rx="15" fill="#646cff"/>
  <text x="460" y="575" font-family="Arial" font-size="14" fill="#ffffff">Add</text>
  <circle cx="300" cy="510" r="8" fill="#4ade80"/>
  <text x="315" y="515" font-family="Arial" font-size="12" fill="#4ade80">Veg</text>
  
  <!-- Product 6 -->
  <rect x="540" y="380" width="240" height="200" rx="8" fill="#1a1a2e"/>
  <rect x="540" y="380" width="240" height="120" rx="8" fill="#24243c"/>
  <text x="550" y="520" font-family="Arial" font-size="18" font-weight="bold" fill="#ffffff">Mango Lassi</text>
  <text x="550" y="545" font-family="Arial" font-size="14" fill="#aaaaaa">Yogurt drink with mango</text>
  <text x="550" y="570" font-family="Arial" font-size="16" font-weight="bold" fill="#4ade80">$4.99</text>
  <rect x="700" y="555" width="70" height="30" rx="15" fill="#646cff"/>
  <text x="720" y="575" font-family="Arial" font-size="14" fill="#ffffff">Add</text>
  <circle cx="560" cy="510" r="8" fill="#4ade80"/>
  <text x="575" y="515" font-family="Arial" font-size="12" fill="#4ade80">Veg</text>
  
  <!-- Cart Drawer (right side) -->
  <rect x="600" y="0" width="200" height="600" fill="#1a1a2e" opacity="0.9"/>
  <text x="630" y="40" font-family="Arial" font-size="20" font-weight="bold" fill="#ffffff">Your Cart</text>
  <line x1="610" y1="60" x2="790" y2="60" stroke="#333355" stroke-width="2"/>
  
  <!-- Cart Item 1 -->
  <text x="620" y="90" font-family="Arial" font-size="16" fill="#ffffff">Butter Chicken</text>
  <text x="620" y="110" font-family="Arial" font-size="14" fill="#aaaaaa">1 × $12.99</text>
  <text x="750" y="100" font-family="Arial" font-size="16" font-weight="bold" fill="#ffffff">$12.99</text>
  
  <!-- Cart Item 2 -->
  <text x="620" y="150" font-family="Arial" font-size="16" fill="#ffffff">Paneer Tikka</text>
  <text x="620" y="170" font-family="Arial" font-size="14" fill="#aaaaaa">2 × $10.99</text>
  <text x="750" y="160" font-family="Arial" font-size="16" font-weight="bold" fill="#ffffff">$21.98</text>
  
  <!-- Cart Totals -->
  <line x1="610" y1="200" x2="790" y2="200" stroke="#333355" stroke-width="2"/>
  <text x="620" y="230" font-family="Arial" font-size="16" fill="#aaaaaa">Subtotal</text>
  <text x="750" y="230" font-family="Arial" font-size="16" font-weight="bold" fill="#ffffff">$34.97</text>
  
  <text x="620" y="260" font-family="Arial" font-size="16" fill="#aaaaaa">Delivery</text>
  <text x="750" y="260" font-family="Arial" font-size="16" font-weight="bold" fill="#ffffff">$2.50</text>
  
  <line x1="610" y1="280" x2="790" y2="280" stroke="#333355" stroke-width="2"/>
  <text x="620" y="310" font-family="Arial" font-size="18" fill="#ffffff">Total</text>
  <text x="750" y="310" font-family="Arial" font-size="18" font-weight="bold" fill="#4ade80">$37.47</text>
  
  <!-- Checkout Button -->
  <rect x="620" y="340" width="160" height="50" rx="8" fill="#646cff"/>
  <text x="660" y="373" font-family="Arial" font-size="18" font-weight="bold" fill="#ffffff">Checkout</text>
</svg>